{"title":"The Shaggy Dog 2006 DVDrip English Klam","uid":6221206,"size":1575008852,"categoryP":"video","categoryS":"movies","magnet":"?xt=urn:btih:ac10f46d16cd87800815c506c3c1f49d91a445e2&amp;dn=The+Shaggy+Dog+2006+DVDrip+English+Klam&amp;tr=udp%3A%2F%2Ftracker.openbittorrent.com%3A80&amp;tr=udp%3A%2F%2Fopen.demonii.com%3A1337&amp;tr=udp%3A%2F%2Ftracker.coppersurfer.tk%3A6969&amp;tr=udp%3A%2F%2Fexodus.desync.com%3A6969","seeders":0,"leechers":1,"uploader":"Klambake","files":-1,"time":1299333640,"description":"With: Tim Allen, Robert Downey Jr. and Kristin Davis\n\nA man tries to live a normal life despite the fact that he sometimes turns into a sheepdog.\n\nGeneral:\n\nComplete name                    : Vicky Cristina Barcelona\\Vicky Cristina Barcelona.avi\nFormat                           : AVI\nFormat/Info                      : Audio Video Interleave\nFile size                        : 1 004 MiB\nDuration                         : 1h 32mn\nOverall bit rate                 : 1 522 Kbps\n\nVideo:\n\nFormat                           : MPEG-4 Visual\nFormat profile                   : Simple@L3\nFormat settings, BVOP            : No\nFormat settings, QPel            : No\nFormat settings, GMC             : No warppoints\nFormat settings, Matrix          : Default (H.263)\nCodec ID                         : XVID\nCodec ID/Hint                    : XviD\nDuration                         : 1h 32mn\nBit rate                         : 1 319 Kbps\nWidth                            : 704 pixels\nHeight                           : 396 pixels\nDisplay aspect ratio             : 16:9\nFrame rate                       : 25.000 fps\nColor space                      : YUV\nChroma subsampling               : 4:2:0\nBit depth                        : 8 bits\nScan type                        : Progressive\nBits/(Pixel*Frame)               : 0.189\nStream size                      : 870 MiB (87%)\nWriting library                  : XviD 1.1.2 (UTC 2006-11-01)\n\nAudio:\n\nFormat                           : AC-3\nFormat/Info                      : Audio Coding 3\nMode extension                   : CM (complete main)\nCodec ID                         : 2000\nDuration                         : 1h 32mn\nBit rate mode                    : Constant\nBit rate                         : 192 Kbps\nChannel(s)                       : 2 channels\nChannel positions                : Front: L R\nSampling rate                    : 48.0 KHz\nBit depth                        : 16 bits\nStream size                      : 127 MiB (13%)\nAlignment                        : Aligned on interleaves\nInterleave, duration             : 32 ms (0.80 video frame)","torrent":{"xt":"urn:btih:ac10f46d16cd87800815c506c3c1f49d91a445e2","amp;dn":"The+Shaggy+Dog+2006+DVDrip+English+Klam","amp;tr":["udp%3A%2F%2Ftracker.openbittorrent.com%3A80","udp%3A%2F%2Fopen.demonii.com%3A1337","udp%3A%2F%2Ftracker.coppersurfer.tk%3A6969","udp%3A%2F%2Fexodus.desync.com%3A6969"],"infoHash":"ac10f46d16cd87800815c506c3c1f49d91a445e2","infoHashBuffer":{"type":"Buffer","data":[172,16,244,109,22,205,135,128,8,21,197,6,195,193,244,157,145,164,69,226]},"announce":[],"urlList":[]}}